<svg width="123" height="53" viewBox="0 0 123 53" fill="none" xmlns="http://www.w3.org/2000/svg">
<g clip-path="url(#clip0_21_216)">
<path d="M35.8757 13.7195C35.7168 13.6898 35.5522 13.7321 35.4273 13.8351C35.3024 13.938 35.23 14.0903 35.23 14.251V22.1472C32.6315 22.6026 29.6412 22.8451 26.519 22.8451C23.3968 22.8451 20.4023 22.6012 17.8023 22.1458C17.8066 22.119 17.808 22.0922 17.808 22.064V14.251C17.808 14.0903 17.7356 13.938 17.6107 13.8351C17.4859 13.7321 17.3226 13.6898 17.1623 13.7195C11.8999 14.7051 8.88129 16.4196 8.88129 18.4233V34.0238C8.88129 35.6341 10.7475 37.0257 14.2785 38.0508C17.5554 39.0026 21.901 39.5257 26.5176 39.5257C31.1342 39.5257 35.4798 39.0012 38.7567 38.0508C42.2877 37.0257 44.1539 35.6326 44.1539 34.0238V18.4233C44.1539 16.4196 41.1353 14.7051 35.8729 13.7195H35.8757ZM36.3185 14.9095C39.7757 15.6343 43.0682 16.9555 43.0682 18.4233C43.0682 19.4568 41.3425 20.5736 38.453 21.4125C37.786 21.6057 37.0707 21.782 36.3171 21.9385V14.9095H36.3185ZM16.7209 14.9095V21.9385C15.9673 21.782 15.2535 21.6071 14.585 21.4125C11.6955 20.5736 9.96981 19.4554 9.96981 18.4233C9.96981 16.9555 13.2623 15.6343 16.7195 14.9095H16.7209ZM38.453 37.0131C35.2726 37.9366 31.0349 38.4442 26.519 38.4442C22.0031 38.4442 17.7654 37.9352 14.585 37.0131C11.6955 36.1741 9.96981 35.0559 9.96981 34.0238V20.4255C10.8696 21.1968 12.3172 21.8793 14.2799 22.4503C17.5568 23.4021 21.9024 23.9252 26.519 23.9252C31.1356 23.9252 35.4812 23.4021 38.7581 22.4503C40.7209 21.8807 42.1684 21.1968 43.0682 20.4255V34.0238C43.0682 35.0574 41.3425 36.1741 38.453 37.0131Z" fill="white"/>
<path d="M36.4818 26.493C33.8392 25.63 30.3367 25.1562 26.6184 25.1562C22.9001 25.1562 19.3975 25.6314 16.755 26.493C13.1275 27.6774 12.3654 29.1452 12.3654 30.1703C12.3654 31.0121 12.8962 32.2459 15.4266 33.3471C17.1992 34.1184 19.5962 34.6767 22.365 34.9672V37.1499C22.365 37.3431 22.4686 37.5208 22.6375 37.618C22.7213 37.666 22.8149 37.69 22.91 37.69C23.0051 37.69 23.0974 37.666 23.1825 37.618L27.7097 35.0208C27.8786 34.9249 27.9822 34.7458 27.9822 34.5527C27.9822 34.3595 27.8786 34.1818 27.7097 34.0845L23.1825 31.4873C23.0136 31.39 22.8064 31.3914 22.639 31.4873C22.4701 31.5831 22.3665 31.7622 22.3665 31.9554V33.8801C19.7892 33.6009 17.4887 33.0637 15.8651 32.3572C14.3338 31.6917 13.4554 30.8936 13.4554 30.1703C13.4554 28.3105 18.8625 26.2377 26.6198 26.2377C34.3771 26.2377 39.7842 28.3105 39.7842 30.1703C39.7842 31.7157 35.8829 33.5755 29.3546 34.0126C29.0551 34.0324 28.8281 34.2904 28.8479 34.5879C28.8678 34.8741 29.1062 35.0927 29.3901 35.0927C29.4028 35.0927 29.4142 35.0927 29.427 35.0927C32.5279 34.8854 35.3592 34.3256 37.4014 33.5177C39.6721 32.6195 40.8713 31.4619 40.8713 30.1717C40.8713 29.148 40.1092 27.6788 36.4818 26.4944V26.493ZM23.4522 32.8902L26.3473 34.5512L23.4522 36.2123V32.8902Z" fill="white"/>
<path d="M26.6723 2.54517C13.356 2.54517 2.56165 13.2698 2.56165 26.5001C2.56165 39.7303 13.356 50.455 26.6723 50.455C39.9886 50.455 50.783 39.7303 50.783 26.5001C50.783 13.2698 39.9886 2.54517 26.6723 2.54517ZM43.3719 43.0918C41.2034 45.2463 38.6773 46.9384 35.8644 48.12C32.9537 49.3439 29.8598 49.9643 26.6723 49.9643C23.4848 49.9643 20.391 49.3439 17.4802 48.12C14.6674 46.9384 12.1426 45.2463 9.97267 43.0918C7.80414 40.9373 6.10111 38.4275 4.91183 35.6328C3.67997 32.7408 3.05552 29.667 3.05552 26.5001C3.05552 23.3332 3.67997 20.2593 4.91183 17.3673C6.10111 14.5727 7.80414 12.0642 9.97267 9.90831C12.1412 7.7538 14.6674 6.06177 17.4802 4.88017C20.391 3.65627 23.4848 3.03585 26.6723 3.03585C29.8598 3.03585 32.9537 3.65627 35.8644 4.88017C38.6773 6.06177 41.202 7.7538 43.3719 9.90831C45.5405 12.0628 47.2435 14.5727 48.4328 17.3673C49.6646 20.2593 50.2891 23.3332 50.2891 26.5001C50.2891 29.667 49.6646 32.7408 48.4328 35.6328C47.2435 38.4275 45.5405 40.9359 43.3719 43.0918Z" fill="#F41137"/>
<path d="M26.6723 0C11.9411 0 0 11.8639 0 26.5C0 41.1361 11.9411 53 26.6723 53C41.4035 53 53.3446 41.1361 53.3446 26.5C53.3446 11.8639 41.4035 0 26.6723 0ZM44.5527 44.2649C42.2295 46.5731 39.5259 48.385 36.5144 49.6498C33.3979 50.9597 30.0869 51.6238 26.6723 51.6238C23.2577 51.6238 19.9468 50.9597 16.8302 49.6498C13.8187 48.385 11.1151 46.5731 8.7919 44.2649C6.46868 41.9567 4.64502 39.2706 3.372 36.2785C2.05357 33.1821 1.38513 29.8925 1.38513 26.5C1.38513 23.1075 2.05357 19.8179 3.372 16.7215C4.64502 13.7294 6.46868 11.0433 8.7919 8.7351C11.1151 6.42689 13.8187 4.61501 16.8302 3.35022C19.9468 2.04031 23.2577 1.37618 26.6723 1.37618C30.0869 1.37618 33.3979 2.04031 36.5144 3.35022C39.5259 4.61501 42.2295 6.42689 44.5527 8.7351C46.8759 11.0433 48.6996 13.7294 49.9726 16.7215C51.291 19.8179 51.9595 23.1075 51.9595 26.5C51.9595 29.8925 51.291 33.1821 49.9726 36.2785C48.6996 39.2706 46.8759 41.9567 44.5527 44.2649Z" fill="#F41137"/>
<path fill-rule="evenodd" clip-rule="evenodd" d="M80.6768 18.907C80.6981 19.2694 80.7861 19.8686 80.9422 20.7062L80.9408 20.7048C79.4421 20.3636 78.6928 19.2934 78.6928 17.4942C78.6928 16.7595 78.8674 15.2818 79.2165 13.0582C79.5656 10.8346 79.7402 9.21168 79.7402 8.188C79.7402 7.16432 79.6933 6.29575 79.5997 5.58228C80.3391 5.77968 80.8471 6.13359 81.1225 6.64543C81.3992 7.15586 81.5369 7.72269 81.5369 8.3431C81.5369 8.96351 81.4375 10.021 81.2403 11.5157C81.043 13.0103 80.9068 14.2018 80.8344 15.0915C81.1452 13.9846 81.5908 13.1062 82.1684 12.4547C82.746 11.8033 83.3676 11.4776 84.0347 11.4776C84.7017 11.4776 85.2764 11.7934 85.7604 12.4237C86.2429 13.054 86.4856 13.8605 86.4856 14.8433C86.4856 16.3633 86.0769 17.6746 85.2594 18.7759C84.4434 19.8757 83.5096 20.427 82.4579 20.427C82.0932 20.427 81.7299 20.3438 81.3652 20.1788C81.8122 20.0548 82.2181 19.801 82.5828 19.4188C82.9476 19.0367 83.2442 18.5968 83.4726 18.1005C83.941 17.0669 84.1751 16.032 84.1751 14.9984C84.1751 14.4922 84.0787 14.0467 83.8856 13.6645C83.6926 13.2824 83.4343 13.0907 83.1122 13.0907C82.5928 13.0907 82.0648 13.618 81.5284 14.6727C80.9919 15.7274 80.7081 17.0401 80.6768 18.6123V18.907ZM64.9252 20.8147C64.0922 20.8147 63.3613 20.6286 62.7312 20.2564H62.7297C62.101 19.8841 61.5986 19.3878 61.224 18.7674C60.4746 17.5266 60.1 16.0785 60.1 14.4245C60.1 12.7706 60.513 11.2971 61.3403 10.0041C62.1692 8.7111 63.2747 7.89469 64.6584 7.55347C64.7422 7.57462 64.823 7.61551 64.9011 7.67755C64.9806 7.73959 65.0246 7.80727 65.0345 7.87918C63.692 8.85069 62.8802 10.1747 62.5992 11.8498C63.0377 10.6301 63.6948 9.67696 64.5747 8.98887C65.4532 8.30078 66.3969 7.95673 67.4074 7.95673C68.4179 7.95673 69.2793 8.3882 69.9917 9.25114C70.7056 10.1155 71.0618 11.3944 71.0618 12.9976C71.0618 14.6008 70.7595 16.0432 70.1564 17.3249C69.8441 18.0074 69.4539 18.6052 68.9855 19.1171C68.5172 19.6275 67.9311 20.0392 67.2286 20.3494C66.5247 20.6596 65.7583 20.8147 64.9252 20.8147ZM64.4952 10.2283C63.8764 10.8346 63.3925 11.596 63.0434 12.5168C62.6943 13.4375 62.5197 14.3681 62.5197 15.3086C62.5197 16.6016 62.7354 17.6605 63.1668 18.4882C63.5997 19.3159 64.2525 19.729 65.1268 19.729C65.8548 19.729 66.4977 19.4118 67.054 18.7759C67.6118 18.1385 68.0247 17.3503 68.2958 16.4098C68.5669 15.4693 68.7017 14.4809 68.7017 13.4474C68.7017 11.9993 68.5016 10.9502 68.1014 10.2988C67.7012 9.64735 67.1548 9.32164 66.4622 9.32164C65.7696 9.32164 65.114 9.62338 64.4952 10.2283ZM79.4776 23.649C79.3215 24.1143 79.2435 24.4809 79.2435 24.7502C79.2435 25.4947 79.7799 25.8669 80.8514 25.8669C81.07 25.8669 81.3254 25.8458 81.6164 25.8049C81.7725 25.3396 81.8505 24.973 81.8505 24.7037C81.8505 23.9592 81.3141 23.5869 80.2426 23.5869C80.024 23.5869 79.7686 23.6081 79.4776 23.649ZM63.7487 36.6C62.4644 36.6 61.4468 36.3264 60.6975 35.7779V35.7751C59.9481 35.2266 59.5735 34.6076 59.5735 33.9139C59.5735 33.2201 59.7821 32.6801 60.1979 32.2923C60.6137 31.906 61.1502 31.7114 61.8058 31.7114C61.9932 31.7114 62.1706 31.7326 62.3366 31.7734C62.0145 32.2486 61.8527 32.7633 61.8527 33.316C61.8527 33.8687 62.0244 34.3453 62.3678 34.743C62.7099 35.1406 63.1654 35.3394 63.7331 35.3394C64.3008 35.3394 64.7776 35.1928 65.1622 34.8981C65.5468 34.6034 65.7399 34.2255 65.7399 33.7658C65.7399 33.3061 65.6093 32.9001 65.3496 32.549C65.0899 32.1979 64.7663 31.8961 64.3817 31.6423C63.9971 31.3885 63.5756 31.0995 63.1172 30.7737C62.6588 30.4466 62.2373 30.1195 61.8527 29.7881C61.4681 29.4582 61.1445 29.0366 60.8848 28.5247C60.6251 28.0129 60.4945 27.4531 60.4945 26.8426C60.4945 25.8598 60.8536 25.0758 61.5717 24.4921C62.2898 23.9083 63.2577 23.6165 64.4753 23.6165C65.693 23.6165 66.6155 23.8886 67.2456 24.4314C67.8757 24.9743 68.1908 25.5538 68.1908 26.1686C68.1908 26.7834 67.9935 27.3008 67.5976 27.7196C67.2016 28.1384 66.6666 28.3485 65.9896 28.3485C65.7611 28.3485 65.5369 28.3273 65.3184 28.2865C65.8278 27.7492 66.0833 27.1824 66.0833 26.5888C66.0833 25.9952 65.9172 25.5425 65.5837 25.2323C65.2516 24.9221 64.8486 24.767 64.3746 24.767C63.9006 24.767 63.5075 24.9094 63.1952 25.1943C62.883 25.4777 62.7269 25.8795 62.7269 26.3956C62.7269 26.9117 62.8589 27.3742 63.1243 27.7831C63.3897 28.192 63.7175 28.5374 64.1078 28.8223C64.4981 29.1057 64.9252 29.4131 65.3879 29.7444C65.8505 30.0758 66.2777 30.3902 66.668 30.6835C67.0583 30.9768 67.3861 31.342 67.6515 31.7763C67.9169 32.2106 68.0489 32.6702 68.0489 33.1567C68.0489 34.1183 67.6529 34.9319 66.8624 35.5988C66.0719 36.2658 65.0331 36.6 63.7487 36.6ZM76.8167 28.4021C77.2382 28.914 77.4482 29.6571 77.4482 30.6286L77.4496 30.6257C77.4496 32.1768 77.0224 33.4951 76.1695 34.5809C75.3166 35.6666 74.2905 36.2094 73.0941 36.2094C72.6669 36.2094 72.2355 36.1262 71.7984 35.9613C72.8188 35.723 73.6306 35.0673 74.2337 33.9915C74.8369 32.9156 75.1392 31.8454 75.1392 30.7808C75.1392 30.2845 75.0483 29.8812 74.8667 29.571C74.6836 29.2608 74.4267 29.1057 74.0932 29.1057C73.4588 29.1057 72.8968 29.4879 72.4072 30.2535C71.9176 31.0191 71.5429 32.0668 71.2832 33.395C71.0235 34.7233 70.8929 36.1093 70.8929 37.5518C70.8929 38.9942 70.9965 40.2477 71.2052 41.3123C70.3522 41.2827 69.7207 41.1445 69.3091 40.902C68.8976 40.6581 68.6918 40.1956 68.6918 39.5131C68.6918 39.265 68.8507 37.955 69.1686 35.582C69.4851 33.2089 69.6441 31.3815 69.6441 30.0998C69.6441 28.8181 69.566 27.7366 69.4099 26.8582C70.243 27.0654 70.8177 27.4475 71.1356 28.0059C71.4521 28.5643 71.6111 29.3821 71.6111 30.4565C72.0482 29.5668 72.596 28.8745 73.2573 28.3782C73.9187 27.8818 74.5729 27.6337 75.2172 27.6337C75.8615 27.6337 76.3952 27.8903 76.8167 28.4021ZM80.999 30.9457C80.7435 32.4192 80.6144 33.6346 80.6087 34.5906V34.592C80.6044 35.5495 80.6641 36.167 80.7889 36.4462C79.9772 36.239 79.4308 35.9259 79.1498 35.5072C78.8688 35.0884 78.7283 34.475 78.7283 33.6685C78.7283 33.2342 78.812 32.4488 78.9781 31.3109C79.1441 30.173 79.2278 29.2889 79.2278 28.6587C79.2278 28.0284 79.1966 27.5419 79.1342 27.2007C79.3626 27.1795 79.577 27.1697 79.7742 27.1697C80.3774 27.1697 80.796 27.2712 81.0302 27.4728C81.2644 27.6745 81.3822 28.0171 81.3822 28.5036C81.3822 28.6587 81.2544 29.4722 80.999 30.9457ZM89.8278 35.8005C89.693 35.558 89.6249 35.1702 89.6249 34.6372C89.6249 34.1042 89.7256 33.254 89.93 32.0865C90.1329 30.9176 90.2351 30.0109 90.2351 29.3651C90.2351 28.7193 90.1017 28.2075 89.8363 27.8296C89.5709 27.4517 89.131 27.2628 88.5179 27.2628C87.9048 27.2628 87.2278 27.666 86.4884 28.4726C85.749 29.2791 85.2083 30.2619 84.8649 31.4195C84.9898 30.675 85.0522 30.0208 85.0522 29.4582C85.0522 28.8956 84.9018 28.3936 84.5995 27.9537C84.2972 27.5138 83.7664 27.1754 83.0072 26.9385C83.1846 27.6308 83.2725 28.388 83.2725 29.21C83.2725 30.0321 83.1633 31.1361 82.9447 32.5222C82.7262 33.9082 82.6169 34.7035 82.6169 34.9108C82.6169 35.3859 82.7475 35.7272 83.0072 35.9344C83.2669 36.1417 83.694 36.2446 84.2873 36.2446C84.3909 36.2446 84.6094 36.2348 84.9429 36.2136C84.8805 35.8512 84.8493 35.2957 84.8493 34.5456C84.8493 33.7954 84.9429 33.0439 85.1303 32.2895C85.3176 31.5352 85.5518 30.9176 85.8328 30.4367C86.1138 29.9559 86.4047 29.5752 86.707 29.296C87.0093 29.0169 87.2789 28.8773 87.5188 28.8773C87.9346 28.8773 88.1432 29.2185 88.1432 29.9009C88.1432 30.4494 88.0396 31.2785 87.831 32.3896C87.6224 33.5007 87.5188 34.248 87.5188 34.6302C87.5188 35.3027 87.7033 35.7723 88.0723 36.0416C88.4412 36.3109 89.0643 36.4449 89.9385 36.4449C90.1883 36.4449 90.3813 36.4392 90.5161 36.4293C90.1939 36.2531 89.964 36.0444 89.8292 35.8005H89.8278ZM98.3671 29.031C98.1386 29.031 97.8732 28.9901 97.5709 28.9069C97.7895 28.6376 97.9825 28.2554 98.1485 27.7591C98.3146 27.2628 98.3983 26.7918 98.3983 26.3477C98.3983 25.9035 98.2947 25.5411 98.0861 25.262C97.8775 24.9828 97.5496 24.8432 97.1026 24.8432C96.4157 24.8432 95.7969 25.159 95.2449 25.7893C94.6928 26.4196 94.2826 27.1951 94.0116 28.1159C93.7405 29.0366 93.6057 29.987 93.6057 30.9697C93.6057 32.2938 93.8654 33.2963 94.3862 33.9787C94.9071 34.6612 95.5727 35.0024 96.3845 35.0024C96.894 35.0024 97.4247 34.8318 97.9768 34.4906C98.5289 34.1493 99.054 33.6629 99.5535 33.0326C99.9381 33.1158 100.131 33.3076 100.131 33.6065C99.7352 34.32 99.2512 34.8995 98.6793 35.3436C98.1074 35.7878 97.5652 36.0825 97.0557 36.2277C96.5463 36.373 96.0197 36.4449 95.479 36.4449C94.2514 36.4449 93.2211 35.9796 92.388 35.0489C91.555 34.1183 91.1391 32.7633 91.1391 30.9853C91.1391 28.9999 91.6543 27.3093 92.6846 25.9134C93.1955 25.2422 93.8484 24.7064 94.6445 24.3088C95.4407 23.9097 96.3618 23.7109 97.4077 23.7109C98.4536 23.7109 99.2498 23.9873 99.7962 24.54C100.343 25.0928 100.615 25.7442 100.615 26.4943C100.615 27.2445 100.406 27.8536 99.9906 28.3245C99.5748 28.7955 99.0327 29.031 98.3671 29.031ZM106.813 33.1256C106.772 33.5387 106.75 33.8179 106.75 33.9631C106.75 34.7908 106.932 35.4239 107.297 35.8639C107.661 36.3038 108.233 36.59 109.014 36.724C108.692 36.0725 108.53 35.3252 108.53 34.482C108.53 33.6388 108.655 32.5179 108.905 31.1163C109.154 29.7147 109.279 28.9167 109.279 28.7193C109.279 28.2131 109.144 27.8606 108.873 27.6646C108.602 27.4686 108.202 27.3699 107.671 27.3699C107.546 27.3699 107.328 27.3797 107.016 27.4009C107.078 27.8972 107.109 28.5458 107.109 29.3481C107.109 30.1504 106.977 30.995 106.712 31.8848C106.447 32.7745 106.093 33.5035 105.65 34.0717C105.208 34.64 104.742 34.9248 104.252 34.9248C103.919 34.9248 103.662 34.7725 103.48 34.4665C103.299 34.162 103.207 33.7657 103.207 33.2793C103.207 32.2345 103.519 31.1671 104.143 30.0771C104.768 28.9858 105.605 28.2554 106.657 27.8817C106.157 27.6547 105.667 27.5405 105.189 27.5405C104.356 27.5405 103.602 27.8479 102.926 28.4626C102.249 29.0774 101.742 29.8275 101.403 30.7116C101.065 31.5957 100.895 32.508 100.895 33.4499C100.895 34.3918 101.105 35.118 101.528 35.6298C101.951 36.1416 102.505 36.3983 103.198 36.3983C103.891 36.3983 104.594 36.0979 105.314 35.4987C106.032 34.8994 106.532 34.1084 106.813 33.1256ZM119.864 32.3884C120.072 31.2778 120.176 30.4489 120.176 29.9004C120.176 29.2184 119.967 28.8774 119.551 28.8774C119.239 28.8774 118.903 29.1016 118.544 29.5514C118.185 30.0012 117.871 30.678 117.6 31.5832C117.329 32.4871 117.194 33.4825 117.194 34.5683C117.194 35.0857 117.225 35.6328 117.288 36.2123C116.954 36.2335 116.736 36.2434 116.632 36.2434C116.049 36.2434 115.627 36.1418 115.368 35.9402C115.108 35.7372 114.977 35.4396 114.977 35.0477C114.977 34.6557 115.089 33.8463 115.314 32.621C115.538 31.3957 115.65 30.4651 115.65 29.8292C115.65 29.1932 115.441 28.876 115.026 28.876C114.797 28.876 114.547 29.0128 114.276 29.2863C114.005 29.5598 113.751 29.9321 113.511 30.403C113.273 30.874 113.073 31.4761 112.911 32.2107C112.749 32.9439 112.668 33.6489 112.668 34.3271C112.668 35.0054 112.7 35.6328 112.762 36.2123C112.428 36.2335 112.21 36.2434 112.106 36.2434C111.523 36.2434 111.102 36.1418 110.842 35.9402C110.582 35.7372 110.452 35.3988 110.452 34.9236C110.452 34.8094 110.559 34.0395 110.772 32.6125C110.985 31.1842 111.092 30.0548 111.092 29.2229C111.092 28.3909 111.004 27.6281 110.826 26.9358C111.597 27.1741 112.132 27.5153 112.434 27.9595C112.736 28.4036 112.887 28.9521 112.887 29.6036C112.887 29.9349 112.85 30.3537 112.778 30.8599C113.132 29.8263 113.623 28.9676 114.254 28.2852C114.884 27.6027 115.492 27.2615 116.08 27.2615C116.668 27.2615 117.095 27.4787 117.36 27.9129C117.626 28.3472 117.758 28.9733 117.758 29.7897C118.153 29.0353 118.606 28.4248 119.116 27.9595C119.625 27.4942 120.093 27.2615 120.521 27.2615C121.156 27.2615 121.606 27.4505 121.872 27.8283C122.137 28.2062 122.269 28.7181 122.269 29.3639C122.269 30.0096 122.167 30.9163 121.964 32.0852C121.761 33.2527 121.659 34.1029 121.659 34.6359C121.659 35.1689 121.727 35.5567 121.862 35.7992C121.997 36.0431 122.227 36.2518 122.549 36.4281C122.414 36.4379 122.221 36.4436 121.971 36.4436C121.095 36.4436 120.474 36.3096 120.105 36.0403C119.736 35.771 119.551 35.3015 119.551 34.6289C119.551 34.2468 119.655 33.4995 119.864 32.3884ZM61.8229 43.8178C61.6568 43.6768 61.346 43.5866 60.889 43.5471C60.5711 43.5175 60.3526 43.4526 60.2362 43.3539C60.1213 43.2552 60.0631 43.1227 60.0631 42.9563C60.0631 42.7899 60.1397 42.6489 60.2916 42.5361C60.4477 42.4233 60.6364 42.3669 60.8578 42.3669C61.0792 42.3669 61.2665 42.4233 61.417 42.5361C61.5674 42.6489 61.644 42.8068 61.644 43.0099C61.644 43.0254 61.6511 43.0339 61.6668 43.0339H61.9392C61.9534 43.0339 61.9619 43.024 61.9619 43.0099C61.9619 42.8111 61.908 42.6419 61.7959 42.4995C61.5844 42.2301 61.268 42.0962 60.8465 42.0962C60.5569 42.0962 60.3015 42.1737 60.0787 42.3345C59.8559 42.4952 59.7466 42.7067 59.7466 42.9718C59.7466 43.2877 59.8715 43.5062 60.1227 43.6275C60.2433 43.6853 60.3639 43.7276 60.4817 43.7572C60.5995 43.7868 60.7599 43.8108 60.9628 43.8291C61.1644 43.8474 61.3361 43.8897 61.4794 43.9546C61.6668 44.0364 61.7618 44.1999 61.7618 44.4453C61.7618 44.6427 61.6781 44.8006 61.505 44.9162C61.3318 45.0319 61.1204 45.0897 60.872 45.0897C60.6236 45.0897 60.4193 45.0248 60.2603 44.8951C60.1014 44.7654 60.0205 44.6159 60.0191 44.4467C60.0191 44.4326 60.012 44.4241 59.9964 44.4227H59.7239C59.7097 44.4227 59.7012 44.4312 59.7012 44.4453C59.7012 44.7033 59.809 44.9205 60.0262 45.0967C60.2433 45.273 60.5271 45.3618 60.8791 45.3618C61.2311 45.3618 61.5192 45.2772 61.742 45.108C61.9662 44.9374 62.0783 44.716 62.0783 44.4453C62.0783 44.3015 62.0528 44.176 62.0031 44.0688C61.9534 43.9617 61.8924 43.8785 61.8214 43.8178H61.8229ZM63.3726 43.2721C63.5628 43.0818 63.7856 42.9873 64.0396 42.9873V42.9887C64.3732 42.9916 64.6272 43.0917 64.8032 43.2877C64.9791 43.4851 65.0671 43.736 65.0671 44.0434V45.2955C65.0671 45.311 65.0586 45.3181 65.0444 45.3181H64.7719C64.7563 45.3181 64.7492 45.311 64.7492 45.2955V44.0434C64.7492 43.8206 64.6925 43.6345 64.5789 43.4879C64.4654 43.3412 64.2837 43.2665 64.0354 43.2637C63.787 43.2609 63.6082 43.3201 63.4989 43.4442C63.3897 43.5682 63.3343 43.7657 63.3329 44.0392V45.2955C63.3329 45.311 63.3244 45.3181 63.3102 45.3181H63.0377C63.0221 45.3181 63.015 45.311 63.015 45.2955V42.1625C63.015 42.1469 63.0235 42.1399 63.0377 42.1399H63.3102C63.3258 42.1399 63.3329 42.1484 63.3329 42.1625V43.2595C63.3329 43.2707 63.3386 43.2792 63.3485 43.2792C63.3584 43.2806 63.3669 43.2778 63.3726 43.2721ZM68.2476 45.0459H68.1965C68.1014 45.0459 68.0375 45.0234 68.0006 44.9825C67.9651 44.9416 67.9467 44.8626 67.9467 44.7442V43.8009C67.9467 43.5358 67.8573 43.3328 67.6799 43.1946C67.5011 43.0564 67.2612 42.9873 66.9575 42.9873C66.6538 42.9873 66.4111 43.0578 66.228 43.196C66.0464 43.337 65.9556 43.54 65.9556 43.8037C65.9556 43.8192 65.9627 43.8263 65.9783 43.8263H66.2507C66.2649 43.8263 66.2735 43.8192 66.2735 43.8037C66.2735 43.4399 66.4949 43.2566 66.9362 43.2566C67.0867 43.2566 67.213 43.2735 67.3137 43.3046C67.4727 43.3553 67.572 43.4568 67.6103 43.6105C67.6231 43.6641 67.6302 43.7304 67.6302 43.8108C67.6302 43.8911 67.6132 43.9433 67.5763 43.9602C67.5394 43.9771 67.4826 43.987 67.4031 43.987H66.8355C66.5176 43.987 66.2763 44.0476 66.1102 44.1675C65.9456 44.2888 65.8647 44.4537 65.8647 44.6638C65.8619 44.8739 65.9414 45.0417 66.1046 45.1686C66.2678 45.2955 66.4949 45.3576 66.79 45.3576C67.1477 45.3491 67.4315 45.2405 67.6387 45.0333C67.6572 45.0163 67.6714 45.0191 67.6799 45.0417C67.7196 45.1376 67.7778 45.2067 67.8544 45.249C67.9311 45.2913 68.0446 45.3124 68.195 45.3124H68.2461C68.2603 45.3124 68.2688 45.3054 68.2688 45.2899V45.0629C68.2688 45.0488 68.2617 45.0403 68.2461 45.0403L68.2476 45.0459ZM67.6316 44.3917C67.6259 44.5764 67.5521 44.7386 67.4102 44.8796C67.2683 45.0206 67.0625 45.0911 66.7915 45.0911C66.5899 45.0911 66.4395 45.0474 66.3373 44.9656C66.2351 44.8838 66.184 44.7837 66.184 44.6638C66.1826 44.5454 66.2295 44.4481 66.3231 44.3734C66.4182 44.2986 66.5956 44.262 66.8553 44.262H67.6089C67.6231 44.262 67.6316 44.269 67.6316 44.2845V44.3917ZM70.1862 42.9873H70.3763V42.9887C70.3905 42.9887 70.399 42.9972 70.4005 43.0113V43.282C70.4005 43.2961 70.3919 43.306 70.3763 43.306H70.1862C69.935 43.306 69.7547 43.3694 69.6454 43.4949C69.5362 43.6218 69.4808 43.8192 69.4794 44.0899V45.2955C69.4794 45.311 69.4709 45.3181 69.4567 45.3181H69.1842C69.1686 45.3181 69.1615 45.311 69.1615 45.2955V43.0564C69.1615 43.0409 69.17 43.0338 69.1842 43.0338H69.4099C69.4198 43.0338 69.4269 43.0423 69.4326 43.0564L69.4794 43.306C69.4879 43.3398 69.5035 43.3412 69.5277 43.3102C69.5504 43.2792 69.566 43.258 69.5745 43.2482C69.583 43.2369 69.6114 43.2115 69.6582 43.1706C69.7945 43.0522 69.9704 42.9915 70.1862 42.9873ZM71.5827 43.0339H71.3116C71.299 43.0339 71.2889 43.044 71.2889 43.0565V45.2942C71.2889 45.3067 71.299 45.3168 71.3116 45.3168H71.5827C71.5952 45.3168 71.6054 45.3067 71.6054 45.2942V43.0565C71.6054 43.044 71.5952 43.0339 71.5827 43.0339ZM71.2676 42.1399H71.6309C71.6465 42.1399 71.6536 42.1484 71.6536 42.1625V42.5234C71.6536 42.5375 71.6451 42.5474 71.6309 42.5474H71.2676C71.252 42.5474 71.2449 42.5403 71.2449 42.5234V42.1625C71.2449 42.1469 71.2534 42.1399 71.2676 42.1399ZM73.8392 42.9873C73.666 42.9873 73.517 43.0226 73.3935 43.0959C73.2686 43.1692 73.1807 43.2425 73.1296 43.3144C73.1239 43.3229 73.1154 43.3271 73.1054 43.3257C73.0955 43.3257 73.0884 43.3173 73.0856 43.306L73.0387 43.0564C73.0359 43.0423 73.0274 43.0338 73.0118 43.0338H72.7904C72.7762 43.0338 72.7677 43.0409 72.7677 43.0564V45.2955C72.7677 45.311 72.7748 45.3181 72.7904 45.3181H73.0629C73.0771 45.3181 73.0856 45.311 73.0856 45.2955V44.0899C73.0841 43.8122 73.1395 43.6049 73.2516 43.4667C73.3637 43.3285 73.544 43.2608 73.7909 43.2637C74.0378 43.2665 74.2181 43.344 74.3316 43.4949C74.4452 43.6472 74.5019 43.846 74.5019 44.0899V45.2955C74.5019 45.311 74.509 45.3181 74.5246 45.3181H74.7971C74.8113 45.3181 74.8198 45.311 74.8198 45.2955V44.0899C74.8212 43.7403 74.7418 43.4709 74.5828 43.2792C74.4239 43.0888 74.1755 42.9915 73.8406 42.9887L73.8392 42.9873ZM77.6596 43.0339H77.8853L77.8881 43.0325C77.9037 43.0325 77.9108 43.041 77.9108 43.0551V45.2209C77.9108 45.5438 77.8143 45.7962 77.6227 45.9795C77.4283 46.1628 77.18 46.2544 76.8748 46.2544C76.5697 46.2544 76.3242 46.1924 76.1383 46.0655C75.9524 45.9386 75.8473 45.7835 75.8218 45.6002C75.8218 45.5847 75.8303 45.5776 75.8445 45.5776H76.1085C76.1227 45.5776 76.134 45.5861 76.1411 45.6002C76.1638 45.7003 76.2376 45.7891 76.3625 45.8667C76.4874 45.9442 76.6449 45.9837 76.8351 45.9837C77.329 45.9837 77.5816 45.7299 77.5929 45.2223V45.046C77.5929 45.0376 77.5901 45.0319 77.5802 45.0291C77.5702 45.0263 77.5617 45.0291 77.5532 45.0376C77.3687 45.2533 77.1147 45.3605 76.7897 45.3605C76.4647 45.3605 76.2021 45.2505 76.002 45.0305C75.8019 44.8106 75.7026 44.5229 75.7026 44.1718C75.7026 43.8207 75.7991 43.5359 75.9949 43.3174C76.1908 43.0988 76.4434 42.9902 76.7556 42.9902C77.0678 42.9902 77.3332 43.0988 77.5518 43.3159C77.5717 43.3371 77.5858 43.3343 77.5915 43.3075L77.6355 43.0565C77.6412 43.041 77.6497 43.0339 77.6596 43.0339ZM76.8252 45.0898C77.0749 45.0898 77.2651 45.0066 77.3957 44.8416C77.5262 44.6766 77.5915 44.4538 77.5915 44.1761C77.5915 43.8983 77.5262 43.6755 77.3957 43.5105C77.2651 43.3456 77.0749 43.2624 76.8252 43.2624C76.5754 43.2624 76.3795 43.347 76.2334 43.5148C76.0872 43.6826 76.0162 43.9039 76.0176 44.1761C76.0162 44.4482 76.0886 44.6696 76.2334 44.8374C76.3781 45.0052 76.5754 45.0898 76.8252 45.0898ZM83.6146 42.14H83.0554C83.0412 42.14 83.0299 42.1471 83.0242 42.1626L82.1883 45.0292C82.1784 45.0404 82.1684 45.0461 82.1571 45.0461C82.1457 45.0461 82.1358 45.0419 82.1287 45.032L81.2942 42.1654C81.2871 42.1485 81.2757 42.1386 81.2616 42.1386H80.7152C80.701 42.1386 80.6939 42.1457 80.6939 42.1612V45.2943C80.6939 45.3098 80.701 45.3168 80.7166 45.3168H80.9891C81.0033 45.3168 81.0118 45.3098 81.0118 45.2943V42.4319C81.0118 42.4319 81.0174 42.4178 81.0288 42.4079C81.0416 42.3981 81.0515 42.4051 81.0572 42.4319L81.9016 45.2943C81.9073 45.3084 81.9158 45.3154 81.9286 45.3154H82.3983C82.4097 45.3154 82.4196 45.3084 82.4253 45.2928L83.2697 42.4305C83.2725 42.4192 83.2796 42.4122 83.2896 42.4093C83.2995 42.4065 83.3066 42.4093 83.3109 42.4136C83.3144 42.4171 83.3174 42.4207 83.3192 42.4242C83.3202 42.4263 83.3208 42.4284 83.3208 42.4305V45.2928C83.3208 45.3084 83.3279 45.3154 83.3435 45.3154H83.616C83.6302 45.3154 83.6387 45.3084 83.6387 45.2928V42.1598C83.6387 42.1457 83.6316 42.1372 83.616 42.1372L83.6146 42.14ZM86.9653 45.0459H87.0164L87.015 45.0403C87.0306 45.0403 87.0377 45.0488 87.0377 45.0629V45.2899C87.0377 45.3054 87.0292 45.3124 87.015 45.3124H86.9639C86.8134 45.3124 86.6999 45.2913 86.6233 45.249C86.5466 45.2067 86.4884 45.1376 86.4487 45.0417C86.4402 45.0191 86.426 45.0163 86.4075 45.0333C86.2003 45.2405 85.9165 45.3491 85.5589 45.3576C85.2637 45.3576 85.0366 45.2955 84.8734 45.1686C84.7102 45.0417 84.6307 44.8739 84.6336 44.6638C84.6336 44.4537 84.7145 44.2888 84.8791 44.1675C85.0451 44.0476 85.2864 43.987 85.6043 43.987H86.172C86.2514 43.987 86.3082 43.9771 86.3451 43.9602C86.382 43.9433 86.399 43.8911 86.399 43.8108C86.399 43.7304 86.3919 43.6641 86.3792 43.6105C86.3409 43.4568 86.2415 43.3553 86.0826 43.3046C85.9818 43.2735 85.8555 43.2566 85.7051 43.2566C85.2637 43.2566 85.0423 43.4399 85.0423 43.8037C85.0423 43.8192 85.0338 43.8263 85.0196 43.8263H84.7471C84.7315 43.8263 84.7244 43.8192 84.7244 43.8037C84.7244 43.54 84.8152 43.337 84.9969 43.196C85.1799 43.0578 85.4226 42.9873 85.7263 42.9873C86.03 42.9873 86.2699 43.0564 86.4487 43.1946C86.6261 43.3328 86.7155 43.5358 86.7155 43.8009V44.7442C86.7155 44.8626 86.734 44.9416 86.7694 44.9825C86.8064 45.0234 86.8702 45.0459 86.9653 45.0459ZM86.1791 44.8796C86.321 44.7386 86.3948 44.5764 86.4005 44.3917V44.2845C86.4005 44.269 86.3919 44.262 86.3777 44.262H85.6242C85.3644 44.262 85.187 44.2986 85.092 44.3734C84.9983 44.4481 84.9515 44.5454 84.9529 44.6638C84.9529 44.7837 85.004 44.8838 85.1061 44.9656C85.2083 45.0474 85.3588 45.0911 85.5603 45.0911C85.8314 45.0911 86.0371 45.0206 86.1791 44.8796ZM89.9683 43.0339H89.7426C89.7327 43.0339 89.7242 43.041 89.7185 43.0565L89.6745 43.3075C89.6689 43.3343 89.6547 43.3371 89.6348 43.3159C89.4162 43.0988 89.1508 42.9902 88.8386 42.9902C88.5264 42.9902 88.2738 43.0988 88.0779 43.3174C87.8821 43.5359 87.7856 43.8207 87.7856 44.1718C87.7856 44.5229 87.8849 44.8106 88.085 45.0305C88.2851 45.2505 88.5463 45.3605 88.8727 45.3605C89.1991 45.3605 89.4517 45.2533 89.6362 45.0376C89.6447 45.0291 89.6532 45.0263 89.6632 45.0291C89.6731 45.0319 89.6759 45.0376 89.6759 45.046V45.2223C89.6646 45.7299 89.412 45.9837 88.9181 45.9837C88.7279 45.9837 88.5704 45.9442 88.4455 45.8667C88.3206 45.7891 88.2468 45.7003 88.2241 45.6002C88.217 45.5861 88.2057 45.5776 88.1915 45.5776H87.9275C87.9133 45.5776 87.9048 45.5847 87.9048 45.6002C87.9303 45.7835 88.0354 45.9386 88.2213 46.0655C88.4072 46.1924 88.6527 46.2544 88.9578 46.2544C89.263 46.2544 89.5113 46.1628 89.7058 45.9795C89.8973 45.7962 89.9938 45.5438 89.9938 45.2209V43.0551C89.9938 43.041 89.9868 43.0325 89.9711 43.0325L89.9683 43.0339ZM89.4787 44.8416C89.3481 45.0066 89.1579 45.0898 88.9082 45.0898C88.6584 45.0898 88.4611 45.0052 88.3164 44.8374C88.1716 44.6696 88.0992 44.4482 88.1006 44.1761C88.0992 43.9039 88.1702 43.6826 88.3164 43.5148C88.4611 43.3456 88.6584 43.2624 88.9082 43.2624C89.1579 43.2624 89.3481 43.3456 89.4787 43.5105C89.6092 43.6755 89.6745 43.8983 89.6745 44.1761C89.6745 44.4538 89.6092 44.6766 89.4787 44.8416ZM91.176 43.0339H91.4471C91.4596 43.0339 91.4698 43.044 91.4698 43.0565V45.2942C91.4698 45.3067 91.4596 45.3168 91.4471 45.3168H91.176C91.1635 45.3168 91.1533 45.3067 91.1533 45.2942V43.0565C91.1533 43.044 91.1635 43.0339 91.176 43.0339ZM91.4953 42.1399H91.132C91.1178 42.1399 91.1093 42.1469 91.1093 42.1625V42.5234C91.1093 42.5403 91.1164 42.5474 91.132 42.5474H91.4953C91.5095 42.5474 91.518 42.5375 91.518 42.5234V42.1625C91.518 42.1484 91.5109 42.1399 91.4953 42.1399ZM94.2415 43.8051C94.1436 43.4399 93.908 43.258 93.5319 43.258C93.2835 43.258 93.0863 43.3412 92.9415 43.5104C92.7967 43.6796 92.7244 43.8996 92.7244 44.1731C92.7244 44.4467 92.7967 44.6666 92.9415 44.8358C93.0863 45.0036 93.2835 45.0882 93.5319 45.0882C93.908 45.0882 94.1436 44.9063 94.2415 44.544C94.2472 44.5285 94.2571 44.5214 94.2684 44.5214H94.5367C94.5523 44.5214 94.5594 44.5299 94.5594 44.544C94.5352 44.7216 94.4487 44.8951 94.2997 45.0657C94.2216 45.1531 94.1166 45.225 93.9832 45.28C93.8498 45.335 93.7008 45.3618 93.5333 45.359C93.1799 45.359 92.9046 45.2518 92.7059 45.0347C92.5086 44.8189 92.4093 44.5313 92.4093 44.1731C92.4093 43.815 92.5101 43.5288 92.7087 43.313C92.9074 43.0973 93.1828 42.9887 93.5333 42.9873C93.7008 42.9873 93.8498 43.0155 93.9832 43.0691C94.2074 43.1607 94.372 43.3187 94.4771 43.5429C94.5196 43.6303 94.548 43.7177 94.5594 43.8051C94.5594 43.8112 94.5581 43.816 94.5556 43.8195C94.5533 43.8229 94.5499 43.8252 94.5457 43.8265C94.543 43.8273 94.54 43.8277 94.5367 43.8277H94.2684C94.2557 43.8277 94.2472 43.8206 94.2415 43.8051ZM97.6717 45.0459H97.6206C97.5255 45.0459 97.4616 45.0234 97.4247 44.9825C97.3892 44.9416 97.3708 44.8626 97.3708 44.7442V43.8009C97.3708 43.5358 97.2814 43.3328 97.104 43.1946C96.9266 43.0564 96.6853 42.9873 96.3816 42.9873C96.0779 42.9873 95.8352 43.0578 95.6521 43.196C95.4705 43.337 95.3797 43.54 95.3797 43.8037C95.3797 43.8192 95.3868 43.8263 95.4024 43.8263H95.6749C95.689 43.8263 95.6976 43.8192 95.6976 43.8037C95.6976 43.4399 95.919 43.2566 96.3603 43.2566C96.5108 43.2566 96.6371 43.2735 96.7378 43.3046C96.8968 43.3553 96.9961 43.4568 97.0344 43.6105C97.0472 43.6641 97.0543 43.7304 97.0543 43.8108C97.0543 43.8911 97.0373 43.9433 97.0004 43.9602C96.9635 43.9771 96.9067 43.987 96.8272 43.987H96.2596C95.9417 43.987 95.7004 44.0476 95.5343 44.1675C95.3697 44.2888 95.2888 44.4537 95.2888 44.6638C95.286 44.8739 95.3655 45.0417 95.5287 45.1686C95.6919 45.2955 95.9204 45.3576 96.2141 45.3576C96.5718 45.3491 96.8556 45.2405 97.0628 45.0333C97.0813 45.0163 97.0955 45.0191 97.104 45.0417C97.1437 45.1376 97.2019 45.2067 97.2785 45.249C97.3552 45.2913 97.4687 45.3124 97.6191 45.3124H97.6702C97.6728 45.3124 97.6753 45.3122 97.6775 45.3117C97.6789 45.3114 97.6803 45.311 97.6815 45.3104C97.6826 45.31 97.6836 45.3095 97.6845 45.3088C97.6858 45.308 97.6869 45.3071 97.6879 45.306C97.6888 45.3049 97.6896 45.3037 97.6903 45.3024L97.6916 45.2993C97.6925 45.2966 97.6929 45.2935 97.6929 45.2899V45.0629C97.6929 45.0488 97.6859 45.0403 97.6702 45.0403L97.6717 45.0459ZM97.0557 44.3917C97.05 44.5764 96.9762 44.7386 96.8343 44.8796C96.6924 45.0206 96.4866 45.0911 96.2156 45.0911C96.014 45.0911 95.8636 45.0474 95.7614 44.9656C95.6592 44.8838 95.6081 44.7837 95.6081 44.6638C95.6067 44.5454 95.6536 44.4481 95.7472 44.3734C95.8423 44.2986 96.0197 44.262 96.2794 44.262H97.033C97.0472 44.262 97.0557 44.269 97.0557 44.2845V44.3917ZM98.5643 42.1399H98.8354C98.8479 42.1399 98.8581 42.15 98.8581 42.1625V45.2941C98.8581 45.3066 98.8479 45.3167 98.8354 45.3167H98.5643C98.5518 45.3167 98.5416 45.3066 98.5416 45.2941V42.1625C98.5416 42.1544 98.5458 42.1474 98.5522 42.1434C98.5537 42.1424 98.5554 42.1416 98.5572 42.141C98.5594 42.1403 98.5618 42.1399 98.5643 42.1399ZM104.565 42.14H104.006C103.991 42.14 103.98 42.1471 103.974 42.1626L103.138 45.0292C103.128 45.0404 103.119 45.0461 103.107 45.0461C103.105 45.0461 103.102 45.0459 103.1 45.0455C103.098 45.0451 103.096 45.0445 103.094 45.0438C103.088 45.0415 103.083 45.0377 103.079 45.032L102.244 42.1654C102.237 42.1485 102.226 42.1386 102.212 42.1386H101.665C101.658 42.1386 101.653 42.1405 101.649 42.1443C101.646 42.148 101.644 42.1536 101.644 42.1612V45.2943C101.644 45.3098 101.651 45.3168 101.667 45.3168H101.939C101.953 45.3168 101.962 45.3098 101.962 45.2943V42.4319C101.962 42.4319 101.968 42.4178 101.979 42.4079C101.992 42.3981 102.002 42.4051 102.007 42.4319L102.852 45.2943C102.857 45.3084 102.866 45.3154 102.879 45.3154H103.348C103.36 45.3154 103.37 45.3084 103.375 45.2928L104.22 42.4305C104.223 42.4192 104.23 42.4122 104.24 42.4093C104.25 42.4065 104.257 42.4093 104.261 42.4136C104.267 42.4192 104.271 42.4249 104.271 42.4305V45.2928C104.271 45.3084 104.278 45.3154 104.294 45.3154H104.566C104.58 45.3154 104.589 45.3084 104.589 45.2928V42.1598C104.589 42.1457 104.582 42.1372 104.566 42.1372L104.565 42.14ZM105.792 43.3145C105.992 43.0988 106.266 42.9902 106.615 42.9902L106.614 42.9888C106.963 42.9888 107.238 43.0959 107.441 43.3117C107.642 43.5302 107.742 43.8165 107.742 44.1746C107.742 44.5327 107.643 44.819 107.441 45.0361C107.24 45.2519 106.966 45.3604 106.614 45.3604C106.262 45.3604 105.988 45.2519 105.789 45.0361C105.592 44.819 105.493 44.5313 105.493 44.1746C105.493 43.8179 105.592 43.5302 105.792 43.3145ZM106.618 45.0897C106.867 45.0897 107.064 45.0051 107.21 44.8373C107.355 44.6695 107.427 44.4481 107.427 44.176C107.427 43.9039 107.355 43.6839 107.21 43.5147C107.064 43.3469 106.868 43.2623 106.62 43.2623C106.371 43.2623 106.174 43.3455 106.028 43.5147C105.883 43.6825 105.811 43.9039 105.811 44.176C105.811 44.4481 105.883 44.6695 106.028 44.8373C106.173 45.0051 106.37 45.0897 106.618 45.0897ZM112.074 44.0435C112.074 43.6924 112.006 43.4288 111.868 43.2511C111.732 43.0734 111.505 42.9846 111.187 42.9846C111.011 42.9846 110.864 43.0142 110.75 43.072C110.635 43.1313 110.535 43.2286 110.454 43.3625C110.439 43.3893 110.423 43.3893 110.408 43.3625C110.254 43.1129 110 42.9874 109.645 42.9874C109.4 42.9888 109.2 43.0974 109.044 43.3132C109.039 43.3244 109.031 43.3301 109.02 43.3258C109.008 43.323 109 43.316 108.997 43.3033L108.953 43.0537C108.95 43.0396 108.941 43.0311 108.926 43.0311H108.702C108.687 43.0311 108.679 43.0382 108.679 43.0537V45.2928C108.679 45.3083 108.686 45.3154 108.702 45.3154H108.974C108.988 45.3154 108.997 45.3083 108.997 45.2928V44.0407C108.998 43.5176 109.2 43.2568 109.603 43.2568C109.728 43.2568 109.831 43.2779 109.915 43.3188C110.115 43.4161 110.214 43.6572 110.214 44.0407V45.2928C110.214 45.3083 110.222 45.3154 110.237 45.3154H110.508C110.524 45.3154 110.532 45.3083 110.532 45.2928V44.0407C110.532 43.8109 110.569 43.6276 110.642 43.4936C110.731 43.3287 110.897 43.2469 111.141 43.2469C111.551 43.2469 111.757 43.512 111.757 44.0393V45.2914C111.757 45.3069 111.764 45.314 111.78 45.314H112.057C112.072 45.314 112.079 45.3069 112.079 45.2914H112.075V44.0393L112.074 44.0435ZM113.244 43.3132C113.433 43.0947 113.696 42.9861 114.034 42.9861V42.9889C114.371 42.9889 114.634 43.0975 114.821 43.3146C115.007 43.5318 115.101 43.8194 115.101 44.1776C115.101 44.2551 115.089 44.2946 115.068 44.2946H113.3C113.284 44.2946 113.277 44.303 113.277 44.3171C113.277 44.5244 113.347 44.7049 113.486 44.86C113.625 45.0151 113.808 45.0927 114.036 45.0927C114.205 45.0927 114.343 45.0574 114.454 44.9869C114.564 44.9164 114.644 44.8346 114.696 44.7416C114.705 44.7261 114.716 44.719 114.73 44.719H115.004C115.024 44.719 115.033 44.7275 115.03 44.7416C114.963 44.9432 114.842 45.0969 114.669 45.2041C114.496 45.3112 114.286 45.3634 114.041 45.362C113.718 45.362 113.459 45.252 113.259 45.0334C113.061 44.8135 112.962 44.5272 112.962 44.1719C112.962 43.8166 113.056 43.5304 113.244 43.3132ZM113.301 44.021H114.76L114.762 44.0225C114.777 44.0225 114.786 44.014 114.786 43.9999C114.786 43.8109 114.722 43.6403 114.594 43.4881C114.466 43.3344 114.283 43.2568 114.045 43.2568C113.806 43.2568 113.619 43.34 113.483 43.505C113.347 43.6699 113.279 43.8349 113.279 43.9985C113.279 44.014 113.287 44.021 113.301 44.021ZM117.163 42.9873C116.99 42.9873 116.841 43.0226 116.717 43.0959C116.592 43.1692 116.506 43.2425 116.453 43.3144C116.448 43.3229 116.439 43.3271 116.429 43.3257C116.419 43.3257 116.412 43.3173 116.409 43.306L116.362 43.0564C116.36 43.0423 116.351 43.0338 116.335 43.0338H116.114C116.1 43.0338 116.091 43.0409 116.091 43.0564V45.2955C116.091 45.3003 116.092 45.3043 116.093 45.3075C116.097 45.3147 116.103 45.3181 116.114 45.3181H116.387C116.401 45.3181 116.409 45.311 116.409 45.2955V44.0899C116.408 43.8122 116.463 43.6049 116.575 43.4667C116.687 43.3285 116.868 43.2608 117.115 43.2637C117.362 43.2665 117.542 43.344 117.655 43.4949C117.769 43.6472 117.826 43.846 117.826 44.0899V45.2955C117.826 45.311 117.833 45.3181 117.848 45.3181H118.121C118.135 45.3181 118.144 45.311 118.144 45.2955V44.0899C118.145 43.7403 118.065 43.4709 117.907 43.2792C117.748 43.0888 117.499 42.9915 117.164 42.9887L117.163 42.9873ZM119.757 43.0339H120.281L120.279 43.0325C120.294 43.0325 120.302 43.0409 120.304 43.055V43.2792C120.304 43.2933 120.295 43.3032 120.279 43.3032H119.756C119.74 43.3032 119.733 43.3116 119.733 43.3257V44.7428C119.733 44.8556 119.757 44.9332 119.804 44.9769C119.852 45.0206 119.929 45.0446 120.034 45.0446H120.279C120.294 45.0446 120.302 45.053 120.304 45.0671V45.2941C120.304 45.3097 120.295 45.3167 120.279 45.3167H120.031C119.81 45.3167 119.652 45.2716 119.558 45.1799C119.465 45.0897 119.418 44.9445 119.417 44.7442V43.3272C119.417 43.3116 119.408 43.3046 119.394 43.3046H118.96C118.944 43.3046 118.937 43.2976 118.937 43.2806V43.0564C118.937 43.0409 118.945 43.0339 118.96 43.0339H119.394C119.409 43.0339 119.417 43.0268 119.417 43.0099V42.4332C119.417 42.4303 119.417 42.4277 119.417 42.4254C119.418 42.4229 119.419 42.4208 119.42 42.419C119.424 42.4133 119.43 42.4106 119.439 42.4106H119.71C119.725 42.4106 119.733 42.4191 119.734 42.4332V43.0099C119.734 43.0147 119.735 43.0191 119.737 43.0227C119.739 43.0259 119.741 43.0285 119.744 43.0304L119.745 43.0308C119.748 43.0328 119.752 43.0339 119.757 43.0339ZM122.807 44.1999C122.71 44.121 122.546 44.0646 122.31 44.0293L122.248 44.0229L122.148 44.0126L122.146 44.0125C122.083 44.0061 122.009 43.9986 121.924 43.9898C121.747 43.9715 121.606 43.9377 121.504 43.8869C121.401 43.8361 121.348 43.7544 121.348 43.6416C121.348 43.5288 121.402 43.4371 121.51 43.3652C121.618 43.2933 121.77 43.258 121.964 43.258C122.158 43.258 122.317 43.3046 122.438 43.3962C122.559 43.4879 122.62 43.6232 122.62 43.8037C122.62 43.8192 122.627 43.8263 122.642 43.8263H122.915C122.929 43.8263 122.938 43.8192 122.938 43.8037C122.938 43.5358 122.844 43.3314 122.658 43.1946C122.472 43.0578 122.241 42.9873 121.965 42.9873C121.69 42.9873 121.466 43.0479 121.291 43.1706C121.117 43.2919 121.03 43.4456 121.03 43.6289C121.03 43.7346 121.053 43.8263 121.097 43.9024C121.139 43.9785 121.189 44.0378 121.243 44.0787C121.297 44.1196 121.375 44.1548 121.479 44.1844C121.582 44.214 121.665 44.2324 121.724 44.2422L122.051 44.2803C122.208 44.2958 122.34 44.3212 122.445 44.3564C122.601 44.4072 122.681 44.5087 122.681 44.661C122.681 44.8429 122.574 44.967 122.361 45.0361C122.251 45.0713 122.124 45.0882 121.984 45.0882C121.74 45.0882 121.565 45.0318 121.459 44.9176C121.352 44.8034 121.3 44.6793 121.3 44.544C121.3 44.5299 121.293 44.5214 121.277 44.5214H121.005C120.99 44.5214 120.982 44.5285 120.982 44.544C120.98 44.7766 121.066 44.9698 121.237 45.1249C121.409 45.2814 121.656 45.359 121.98 45.359C122.303 45.359 122.554 45.3026 122.732 45.1884C122.909 45.0727 122.997 44.9063 122.997 44.6864C122.997 44.4664 122.933 44.3043 122.804 44.1985L122.807 44.1999ZM77.1865 11.4621C76.7339 11.4623 76.2445 11.7796 75.7196 12.4152C75.1945 13.0512 74.7432 14.041 74.3685 15.3862C74.4622 14.8489 74.509 14.2878 74.509 13.7026C74.509 13.1174 74.3586 12.607 74.0563 12.1671C73.754 11.7271 73.2232 11.3887 72.464 11.1519C72.6414 11.8442 72.7294 12.6014 72.7294 13.4234C72.7294 14.2454 72.6201 15.3495 72.4015 16.7356C72.183 18.1216 72.0737 18.9169 72.0737 19.1241C72.0737 19.5993 72.2043 19.9405 72.464 20.1478C72.7237 20.3551 73.1509 20.458 73.7441 20.458C73.8378 20.458 74.0506 20.4481 74.3841 20.427C74.3316 19.6515 74.3061 19.2116 74.3061 19.1086C74.3061 18.2612 74.3756 17.4617 74.5161 16.7116C74.6566 15.9614 74.8312 15.3467 75.0398 14.8659C75.2484 14.385 75.467 14.0072 75.6955 13.7336C75.924 13.4601 76.1383 13.3219 76.3355 13.3219C76.6066 13.3219 76.7414 13.4869 76.7414 13.8182C76.7414 14.3865 76.5796 14.8729 76.2575 15.2762C76.4548 15.3594 76.6265 15.4003 76.7727 15.4003C77.3247 15.4003 77.759 15.1775 78.0755 14.7333C78.3934 14.2892 78.5523 13.7999 78.5523 13.2683C78.5523 12.7367 78.4374 12.301 78.2089 11.9654C77.9805 11.6301 77.6388 11.4623 77.1865 11.4621ZM89.6376 10.0902C90.1272 9.47543 90.3713 8.83105 90.3713 8.15988C90.3713 7.48871 89.9867 7.19824 89.2161 7.19824C88.8415 7.19824 88.4512 7.25464 88.0453 7.36885C88.2014 7.80314 88.2794 8.1909 88.2794 8.53213C88.2794 9.48389 87.8679 10.3214 87.0462 11.0448L87.4989 11.7428C88.4356 11.2563 89.148 10.7064 89.6376 10.0916V10.0902ZM96.5519 18.1004C96.5519 18.8449 96.2298 19.471 95.584 19.9772L95.5826 19.9757C94.9369 20.4819 94.1365 20.7357 93.1785 20.7357C92.2206 20.7357 91.4684 20.544 90.922 20.1619C90.3756 19.7798 90.1031 19.3398 90.1031 18.8435C90.1031 18.3472 90.2578 17.9453 90.5644 17.6407C90.8709 17.3362 91.2527 17.1839 91.7111 17.1839C91.9509 17.1839 92.1737 17.2248 92.3823 17.308C92.0488 17.6591 91.8828 18.0313 91.8828 18.4247C91.8828 18.8181 91.9921 19.1326 92.2106 19.3708C92.4292 19.6091 92.7272 19.7276 93.1005 19.7276C93.4737 19.7276 93.7888 19.6331 94.0442 19.4413C94.2997 19.2496 94.4274 19.0028 94.4274 18.6969C94.4274 18.3909 94.3394 18.1202 94.162 17.8819C93.9846 17.6436 93.7632 17.4349 93.4978 17.253C93.2339 17.0725 92.9443 16.8681 92.6321 16.641C92.3213 16.4126 92.0318 16.1828 91.7664 15.9501C91.5024 15.7175 91.281 15.4228 91.1036 15.066C90.9262 14.7107 90.8383 14.3201 90.8383 13.8957C90.8383 13.1625 91.1434 12.5604 91.7522 12.0895C92.3611 11.6185 93.1203 11.3831 94.0314 11.3831C94.9426 11.3831 95.6082 11.5593 96.0297 11.9104C96.4512 12.2629 96.6612 12.6746 96.6612 13.1442C96.6612 13.6137 96.5136 14.0142 96.217 14.3455C95.9218 14.6769 95.5386 14.8418 95.0703 14.8418C94.8418 14.8418 94.5807 14.7953 94.2897 14.7023C94.5182 14.5049 94.6956 14.2807 94.8205 14.0269C94.9454 13.773 95.0079 13.5221 95.0079 13.2739C95.0079 13.0257 94.9042 12.8156 94.6956 12.645C94.487 12.4758 94.2372 12.3898 93.9463 12.3898C93.6553 12.3898 93.3942 12.4857 93.1657 12.6775C92.9372 12.8692 92.8223 13.1414 92.8223 13.4925C92.8223 13.8435 92.9443 14.1749 93.1884 14.4851C93.4325 14.7953 93.732 15.0675 94.0854 15.3001C94.4402 15.5328 94.7964 15.7711 95.1554 16.0136C95.5145 16.2561 95.8281 16.5564 96.0992 16.9132C96.3703 17.2713 96.5207 17.6661 96.5519 18.1004Z" fill="white"/>
</g>
<defs>
<clipPath id="clip0_21_216">
<rect width="123" height="53" fill="white"/>
</clipPath>
</defs>
</svg>
