<?xml version="1.0" encoding="UTF-8"?><svg id="Layer_2" xmlns="http://www.w3.org/2000/svg" viewBox="0 0 539.26 539.26"><defs><style>.cls-1{fill:#fff;}</style></defs><g id="Layer_1-2"><g><g><path class="cls-1" d="M362.67,139.6c-1.61-.3-3.27,.13-4.53,1.17-1.26,1.04-1.99,2.6-1.99,4.23v80.33c-26.27,4.63-56.49,7.1-88.05,7.1s-61.83-2.48-88.11-7.11c.04-.27,.06-.55,.06-.83v-79.49c0-1.64-.73-3.19-1.99-4.23-1.26-1.05-2.92-1.48-4.53-1.17-53.2,10.03-83.72,27.47-83.72,47.86v158.74c0,16.38,18.87,30.55,54.57,40.98,33.12,9.68,77.06,15.01,123.72,15.01s90.6-5.33,123.72-15.01c35.7-10.43,54.57-24.6,54.57-40.98V187.46c0-20.38-30.51-37.83-83.72-47.86Zm4.48,12.11c34.95,7.38,68.24,20.81,68.24,35.75,0,10.51-17.44,21.88-46.65,30.42-6.75,1.97-13.97,3.76-21.59,5.35v-71.51Zm-198.11,0v71.51c-7.62-1.59-14.84-3.38-21.59-5.35-29.21-8.54-46.65-19.91-46.65-30.42,0-14.93,33.29-28.37,68.24-35.75Zm219.69,224.9c-32.15,9.39-74.99,14.57-120.64,14.57s-88.49-5.17-120.64-14.57c-29.21-8.54-46.65-19.91-46.65-30.42V207.84c9.09,7.84,23.73,14.8,43.57,20.59,33.12,9.68,77.06,15.01,123.72,15.01s90.6-5.33,123.72-15.01c19.84-5.8,34.47-12.75,43.57-20.59v138.35c0,10.51-17.44,21.88-46.65,30.42Z"/><path class="cls-1" d="M368.8,269.55c-26.71-8.77-62.12-13.61-99.71-13.61s-72.99,4.83-99.71,13.61c-36.67,12.05-44.37,26.99-44.37,37.41,0,8.56,5.37,21.12,30.95,32.32,17.92,7.85,42.15,13.53,70.13,16.48v22.2c0,1.96,1.05,3.78,2.75,4.76,.85,.49,1.8,.74,2.75,.74s1.9-.25,2.75-.74l45.77-26.42c1.7-.98,2.75-2.8,2.75-4.76s-1.05-3.78-2.75-4.76l-45.77-26.42c-1.7-.98-3.8-.98-5.5,0-1.7,.98-2.75,2.8-2.75,4.76v19.58c-26.05-2.84-49.31-8.31-65.72-15.49-15.48-6.78-24.36-14.89-24.36-22.25,0-18.93,54.65-40.01,133.08-40.01s133.08,21.09,133.08,40.01c0,15.72-39.44,34.64-105.43,39.1-3.03,.2-5.32,2.83-5.12,5.86,.2,2.91,2.61,5.13,5.48,5.13,.12,0,.25,0,.38-.01,31.35-2.11,59.97-7.8,80.61-16.02,22.95-9.14,35.08-20.91,35.08-34.05,0-10.42-7.7-25.36-44.37-37.41Zm-131.71,65.09l29.27,16.9-29.27,16.9v-33.79Z"/></g><g><path class="cls-1" d="M269.63,25.89c-134.61,0-243.74,109.12-243.74,243.74s109.12,243.74,243.74,243.74,243.74-109.12,243.74-243.74S404.24,25.89,269.63,25.89Zm168.81,412.55c-21.93,21.93-47.46,39.14-75.89,51.17-29.43,12.45-60.69,18.76-92.93,18.76s-63.5-6.31-92.93-18.76c-28.43-12.02-53.96-29.24-75.89-51.17-21.93-21.93-39.14-47.46-51.17-75.89-12.45-29.43-18.76-60.69-18.76-92.93s6.31-63.5,18.76-92.93c12.02-28.43,29.24-53.96,51.17-75.89,21.93-21.93,47.46-39.14,75.89-51.17,29.43-12.45,60.69-18.76,92.93-18.76s63.5,6.31,92.93,18.76c28.43,12.02,53.96,29.24,75.89,51.17,21.93,21.93,39.14,47.46,51.17,75.89,12.45,29.43,18.76,60.69,18.76,92.93s-6.31,63.5-18.76,92.93c-12.02,28.43-29.24,53.96-51.17,75.89Z"/><path class="cls-1" d="M269.63,0C120.72,0,0,120.72,0,269.63s120.72,269.63,269.63,269.63,269.63-120.72,269.63-269.63S418.54,0,269.63,0Zm180.76,450.39c-23.48,23.48-50.82,41.91-81.26,54.79-31.51,13.33-64.98,20.08-99.5,20.08s-67.99-6.76-99.5-20.08c-30.44-12.87-57.78-31.31-81.26-54.79-23.48-23.48-41.91-50.82-54.79-81.26-13.33-31.51-20.08-64.98-20.08-99.5s6.76-67.99,20.08-99.5c12.87-30.44,31.31-57.78,54.79-81.26,23.48-23.48,50.82-41.91,81.26-54.79,31.51-13.33,64.98-20.08,99.5-20.08s67.99,6.76,99.5,20.08c30.44,12.87,57.78,31.31,81.26,54.79,23.48,23.48,41.91,50.82,54.79,81.26,13.33,31.51,20.08,64.98,20.08,99.5s-6.76,67.99-20.08,99.5c-12.87,30.44-31.31,57.78-54.79,81.26Z"/></g></g></g></svg>